<svg id="Tweeter" xmlns="http://www.w3.org/2000/svg" width="90" height="35" viewBox="0 0 90 35">
  <metadata><?xpacket begin="﻿" id="W5M0MpCehiHzreSzNTczkc9d"?>
<x:xmpmeta xmlns:x="adobe:ns:meta/" x:xmptk="Adobe XMP Core 5.6-c142 79.160924, 2017/07/13-01:06:39        ">
   <rdf:RDF xmlns:rdf="http://www.w3.org/1999/02/22-rdf-syntax-ns#">
      <rdf:Description rdf:about=""/>
   </rdf:RDF>
</x:xmpmeta>
                                                                                                    
                                                                                                    
                                                                                                    
                                                                                                    
                                                                                                    
                                                                                                    
                                                                                                    
                                                                                                    
                                                                                                    
                                                                                                    
                                                                                                    
                                                                                                    
                                                                                                    
                                                                                                    
                                                                                                    
                                                                                                    
                                                                                                    
                                                                                                    
                                                                                                    
                                                                                                    
                           
<?xpacket end="w"?></metadata>
<defs>
    <style>
      .cls-1 {
        fill: #00abf0;
      }

      .cls-1, .cls-3 {
        fill-rule: evenodd;
      }

      .cls-2 {
        font-size: 12px;
        text-anchor: middle;
        font-family: Montserrat;
      }

      .cls-2, .cls-3 {
        fill: #fff;
      }
    </style>
  </defs>
  <g id="BK">
    <path id="Rounded_Rectangle_2" data-name="Rounded Rectangle 2" class="cls-1" d="M852.27,3771.99h85.468A2.29,2.29,0,0,1,940,3774.3v30.38a2.284,2.284,0,0,1-2.262,2.31H852.27a2.284,2.284,0,0,1-2.262-2.31V3774.3A2.29,2.29,0,0,1,852.27,3771.99Z" transform="translate(-850 -3772)"/>
  </g>
  <g id="Content">
    <text id="Tweet" class="cls-2" x="59" y="22.001">Tweet</text>
    <path id="Twitter" class="cls-3" d="M876.008,3784.7c-0.081.64-1.008,1.28-1.57,1.76,0.554,8.13-8.71,13.2-15.441,9.08a7.914,7.914,0,0,0,5.136-1.56,3.631,3.631,0,0,1-3.238-2.44,4.534,4.534,0,0,0,1.472-.1c-1.494-.57-2.675-1.44-2.748-3.42a4.631,4.631,0,0,0,1.472.29,3.939,3.939,0,0,1-1.079-4.68,10.559,10.559,0,0,0,7.36,3.71c-0.848-3.59,3.934-5.81,6.085-3.22a13.3,13.3,0,0,0,2.257-.78,4.648,4.648,0,0,1-1.472,1.85A5.363,5.363,0,0,0,876.008,3784.7Z" transform="translate(-850 -3772)"/>
  </g>
</svg>
