<svg id="G_" data-name="G+" xmlns="http://www.w3.org/2000/svg" width="90" height="35" viewBox="0 0 90 35">
  <metadata><?xpacket begin="﻿" id="W5M0MpCehiHzreSzNTczkc9d"?>
<x:xmpmeta xmlns:x="adobe:ns:meta/" x:xmptk="Adobe XMP Core 5.6-c142 79.160924, 2017/07/13-01:06:39        ">
   <rdf:RDF xmlns:rdf="http://www.w3.org/1999/02/22-rdf-syntax-ns#">
      <rdf:Description rdf:about=""/>
   </rdf:RDF>
</x:xmpmeta>
                                                                                                    
                                                                                                    
                                                                                                    
                                                                                                    
                                                                                                    
                                                                                                    
                                                                                                    
                                                                                                    
                                                                                                    
                                                                                                    
                                                                                                    
                                                                                                    
                                                                                                    
                                                                                                    
                                                                                                    
                                                                                                    
                                                                                                    
                                                                                                    
                                                                                                    
                                                                                                    
                           
<?xpacket end="w"?></metadata>
<defs>
    <style>
      .cls-1 {
        fill: #dd4b39;
      }

      .cls-1, .cls-3 {
        fill-rule: evenodd;
      }

      .cls-2 {
        font-size: 12px;
        text-anchor: middle;
        font-family: Montserrat;
      }

      .cls-2, .cls-3 {
        fill: #fff;
      }
    </style>
  </defs>
  <g id="BK">
    <path id="REctangle" class="cls-1" d="M953.27,3771.99h85.47a2.288,2.288,0,0,1,2.26,2.31v30.38a2.282,2.282,0,0,1-2.26,2.31H953.27a2.284,2.284,0,0,1-2.262-2.31V3774.3A2.29,2.29,0,0,1,953.27,3771.99Z" transform="translate(-951 -3772)"/>
  </g>
  <g id="Content">
    <text id="Share" class="cls-2" x="61" y="22.001">Share</text>
    <path id="G_2" data-name="G+" class="cls-3" d="M960,3789.51a6.547,6.547,0,0,1,6.328-6.51,6.744,6.744,0,0,1,4.792,1.61c-0.545.58-1.1,1.16-1.692,1.7a4.79,4.79,0,0,0-3.945-.75,4.109,4.109,0,0,0-2.723,5.27,4.235,4.235,0,0,0,5.562,2.49,3.646,3.646,0,0,0,2.167-2.48c-1.275-.02-2.55,0-3.823-0.04,0-.74-0.007-1.48,0-2.22,2.125,0,4.254-.01,6.382.01a7.25,7.25,0,0,1-1.352,5.22,6.671,6.671,0,0,1-7.194,1.87,6.522,6.522,0,0,1-4.5-6.17h0Zm0,0,17.186-2.8h1.9q0,0.93.012,1.86c0.634,0.01,1.271.01,1.9,0.01v1.86c-0.634.01-1.271,0.01-1.9,0.01-0.007.63-.009,1.25-0.012,1.87h-1.9c-0.007-.62-0.007-1.24-0.013-1.87-0.634,0-1.272,0-1.906-.01v-1.86c0.634,0,1.268,0,1.906-.01q0-.93.016-1.86h0Zm0,0" transform="translate(-951 -3772)"/>
  </g>
</svg>
