<svg xmlns="http://www.w3.org/2000/svg" width="23" height="18.03" viewBox="0 0 23 18.03">
  <metadata><?xpacket begin="﻿" id="W5M0MpCehiHzreSzNTczkc9d"?>
<x:xmpmeta xmlns:x="adobe:ns:meta/" x:xmptk="Adobe XMP Core 5.6-c142 79.160924, 2017/07/13-01:06:39        ">
   <rdf:RDF xmlns:rdf="http://www.w3.org/1999/02/22-rdf-syntax-ns#">
      <rdf:Description rdf:about=""/>
   </rdf:RDF>
</x:xmpmeta>





















<?xpacket end="w"?></metadata>
<defs>
    <style>
      .cls-1 {
        fill: #fff;
        fill-rule: evenodd;
      }
    </style>
  </defs>
  <path id="Arrow_Right" data-name="Arrow Right" class="cls-1" d="M975,3273h21a1,1,0,0,1,0,2H975A1,1,0,0,1,975,3273Zm13.731-7.72,7.952,7.96a1.02,1.02,0,1,1-1.446,1.44l-7.952-7.95A1.024,1.024,0,0,1,988.731,3265.28Zm0,17.43,7.952-7.95a1.02,1.02,0,1,0-1.446-1.44l-7.952,7.95A1.02,1.02,0,0,0,988.731,3282.71Z" transform="translate(-974 -3265)"/>
</svg>
