<svg xmlns="http://www.w3.org/2000/svg" width="15.031" height="13" viewBox="0 0 15.031 13">
  <metadata><?xpacket begin="﻿" id="W5M0MpCehiHzreSzNTczkc9d"?>
<x:xmpmeta xmlns:x="adobe:ns:meta/" x:xmptk="Adobe XMP Core 5.6-c142 79.160924, 2017/07/13-01:06:39        ">
   <rdf:RDF xmlns:rdf="http://www.w3.org/1999/02/22-rdf-syntax-ns#">
      <rdf:Description rdf:about=""/>
   </rdf:RDF>
</x:xmpmeta>
                                                                                                    
                                                                                                    
                                                                                                    
                                                                                                    
                                                                                                    
                                                                                                    
                                                                                                    
                                                                                                    
                                                                                                    
                                                                                                    
                                                                                                    
                                                                                                    
                                                                                                    
                                                                                                    
                                                                                                    
                                                                                                    
                                                                                                    
                                                                                                    
                                                                                                    
                                                                                                    
                           
<?xpacket end="w"?></metadata>
<defs>
    <style>
      .cls-1 {
        fill: #9fa3a7;
        fill-rule: evenodd;
      }
    </style>
  </defs>
  <path id="Icon" class="cls-1" d="M412.8,4119.23a0.506,0.506,0,0,1,.557.52v6.27a1.66,1.66,0,0,0,1.668,1.57h9.791l-2.337-2.19a0.494,0.494,0,0,1,0-.74,0.56,0.56,0,0,1,.779,0l3.338,3.14a0.483,0.483,0,0,1,0,.73l-3.338,3.14a0.728,0.728,0,0,1-.445.1c-0.111,0-.333,0-0.333-0.2a0.493,0.493,0,0,1,0-.74l2.336-2.19h-9.79a2.677,2.677,0,0,1-2.782-2.62v-6.27a0.5,0.5,0,0,1,.556-0.52h0ZM422.809,4132a0.908,0.908,0,0,0,.615-0.17l3.337-3.14a0.7,0.7,0,0,0,0-1.05l-3.337-3.14a0.82,0.82,0,0,0-1.118,0,0.7,0.7,0,0,0,0,1.05l1.927,1.82h-9.212a1.427,1.427,0,0,1-1.429-1.35v-6.27a0.8,0.8,0,0,0-1.592,0v6.27a2.9,2.9,0,0,0,3.022,2.84h9.211l-1.927,1.81a0.7,0.7,0,0,0-.06.99A0.478,0.478,0,0,0,422.809,4132Zm0.056-7.27a0.313,0.313,0,0,1,.219.09l3.338,3.14a0.264,0.264,0,0,1,0,.41l-3.337,3.14a0.439,0.439,0,0,1-.276.04h-0.093v-0.07l-0.071-.07a0.276,0.276,0,0,1,0-.42l2.746-2.58H415.022a2.443,2.443,0,0,1-2.542-2.39v-6.27a0.317,0.317,0,0,1,.633,0v6.27a1.9,1.9,0,0,0,1.908,1.8H425.39l-2.745-2.58a0.275,0.275,0,0,1,0-.42A0.314,0.314,0,0,1,422.865,4124.73Z" transform="translate(-412 -4119)"/>
</svg>
